<?xml version="1.0" encoding="iso-8859-1"?>
<!-- Generator: Adobe Illustrator 19.0.0, SVG Export Plug-In . SVG Version: 6.00 Build 0)  -->
<svg version="1.1" id="Capa_1" xmlns="http://www.w3.org/2000/svg" xmlns:xlink="http://www.w3.org/1999/xlink" x="0px" y="0px"
	 viewBox="0 0 512 512" style="enable-background:new 0 0 512 512;" xml:space="preserve">
<circle style="fill:#E85454;" cx="256" cy="256" r="256"/>
<path style="fill:#D84848;" d="M22.151,256c0-137.672,108.68-249.945,244.925-255.747C263.402,0.097,259.712,0,256,0
	C114.615,0,0,114.615,0,256s114.615,256,256,256c3.713,0,7.402-0.097,11.075-0.253C130.831,505.945,22.151,393.673,22.151,256z"/>
<g>
	<path style="fill:#F2F2F2;" d="M466.77,279.358c-0.331-1.091-1.596-1.575-2.568-0.98c-2.326,1.424-6.35,3.565-9.51,3.565
		c-3.59,0-5.554-2.997-5.554-6.287c0-6.279,8.345-33.489,10.873-41.587c0.352-1.128-0.503-2.265-1.685-2.249l-24.679,0.329
		c-0.759,0.01-1.424,0.512-1.642,1.239l-0.149,0.496c-0.375,1.249-1.955,1.673-2.875,0.748c-2.452-2.466-7.575-5.896-17.104-5.896
		c-28.867,0-44.687,24.887-45.377,39.521c-0.062,1.594-0.102,2.502-0.127,3.01c-0.02,0.405-0.178,0.785-0.452,1.084
		c-2.138,2.336-11.603,11.922-22.977,11.922c-10.021,0-11.687-8.395-11.687-13.754c0-5.826,4.841-28.833,18.503-28.833
		c4.544,0,8.011,2.415,10.019,4.294c0.945,0.884,2.48,0.484,2.857-0.754l2.74-8.99c0.233-0.766-0.081-1.597-0.772-2
		c-2.364-1.38-8.37-4.189-18.133-4.218c-27.905-0.037-46.967,20.922-47.633,39.794c-0.078,1.778-0.149,2.802-0.183,3.359
		c-0.023,0.389-0.169,0.747-0.428,1.039c-1.822,2.053-8.228,8.545-16.318,8.545c-6.103,0-6.103-4.759-6.103-6.877
		c0-2.446,8.881-33.029,11.405-41.67c0.328-1.123-0.525-2.242-1.695-2.225l-27.889,0.423c-0.768,0.012-1.438,0.526-1.647,1.266
		l-10.732,38.018c-0.112,0.397-0.36,0.739-0.702,0.97c-3.079,2.081-19.227,12.324-40.92,13.878
		c-12.461,0.854-16.758-6.697-16.758-11.141l0,0c0-0.996,0.83-1.789,1.825-1.736c1.821,0.096,4.683,0.223,7.056,0.223
		c2.962,0,39.794-2.551,39.794-25.095c0-12.876-12.858-17.788-29.165-17.788c-30.092,0-51.2,18.671-51.2,40.817
		c0,20.216,17.287,28.903,39.565,28.903c20.929,0,41.445-10.622,47.854-14.258c0.976-0.554,2.203-0.048,2.518,1.029
		c1.25,4.282,5.677,13.229,20.846,13.229c16.974,0,30.908-10.524,35.264-14.207c0.752-0.636,1.887-0.52,2.488,0.26
		c2.922,3.785,11.936,13.357,28.36,13.357c16.873,0,30.59-11.019,35.256-15.271c0.831-0.757,2.153-0.546,2.689,0.443
		c2.343,4.326,9.324,13.864,25.343,13.864c12.228,0,20.176-6.06,23.331-9.022c0.782-0.735,2.024-0.607,2.627,0.281
		c2.067,3.048,7.312,8.741,17.647,8.741c14.589,0,26.1-8.724,29.264-11.377c0.534-0.448,0.743-1.165,0.541-1.832L466.77,279.358z
		 M207.669,240.167c4.244,0.255,7.1,3.291,6.951,6.395c-0.575,16.49-17.412,17.3-23.347,17.072
		c-1.098-0.042-1.883-1.065-1.635-2.136C190.973,255.727,195.801,239.44,207.669,240.167z M406.016,284.272
		c-7.769,0-7.769-8.533-7.769-11.013c0-6.518,5.115-32.438,19.2-32.438c5.928,0,9.113,5,9.113,8.738
		C426.556,250.336,422.98,284.272,406.016,284.272z"/>
	<path style="fill:#F2F2F2;" d="M278.333,194.56c7.277,0,17.087,2,17.087,11.736c0,9.702-8.144,13.912-17.087,13.912
		c-8.887,0-17.453-2.618-17.453-12.136C260.881,198.646,268.287,194.56,278.333,194.56z"/>
</g>
<path style="fill:#D6D6D8;" d="M279.714,208.072c0-6.191,3.208-10.065,8.247-12.004c-3.044-1.142-6.559-1.508-9.628-1.508
	c-10.046,0-17.453,4.086-17.453,13.512c0,9.518,8.565,12.136,17.453,12.136c3.112,0,6.117-0.523,8.725-1.596
	C282.745,216.929,279.714,213.723,279.714,208.072z"/>
<path style="fill:#F2F2F2;" d="M472.27,305.736c-0.264-0.876-1.185-1.369-2.057-1.092c-56.272,17.872-222.097,38.807-343.106-5.164
	c-0.927-0.337-1.342-1.406-0.893-2.284c0.755-1.479,1.873-3.675,2.724-5.375c7.946-16.201,17.188-47.561,18.802-53.129
	c0.153-0.529,0.56-0.943,1.085-1.106c7.253-2.238,59.1-19.781,59.1-64.052c0-15.06-14.005-24.764-27.834-25.355
	c-48.304-1.881-61.703,66.959-64.664,78.664c-0.186,0.845-0.257,1.102-0.257,1.102c-11.266-1.561-18.818-3.672-21.838-4.611
	c-0.835-0.26-1.724,0.179-2.026,1l-2.339,6.366c-0.303,0.826,0.101,1.736,0.91,2.083c7.819,3.346,17.692,4.936,21.577,5.465
	c0.93,0.127,1.556,1.001,1.387,1.925c-3.031,16.505-13.78,43.832-16.363,50.267c-0.313,0.78-1.159,1.193-1.966,0.96
	c-3.817-1.102-14.984-3.958-28.238-3.958c-21.292,0-28.609,10.133-29.132,16.492c-1.413,16.431,19.254,24.149,33.682,24.149
	c24.589,0,38.862-11.585,42.088-14.525c0.448-0.408,1.083-0.53,1.653-0.322c9.176,3.346,83.532,29.566,160.874,29.566
	c99.879,0,185.297-24.563,197.765-28.316c0.868-0.261,1.354-1.175,1.092-2.042L472.27,305.736z M182.385,161.813
	c9.28,0,12.356,7.531,11.579,14.305c-3.82,33.624-32.648,45.322-41.453,48.131c-1.176,0.375-2.324-0.635-2.105-1.85
	C152.541,210.538,162.523,161.813,182.385,161.813z M64.757,315.292c-7.964,0.231-13.15-5.061-13.15-8.026
	c0-6.554,8.042-7.587,13.15-7.226c8.408,0.457,16.011,2.56,20.012,3.857c1.286,0.417,1.543,2.127,0.433,2.899
	C81.009,309.712,72.333,315.056,64.757,315.292z"/>
<g>
	<path style="fill:#D6D6D8;" d="M179.128,148.162c-47.515-0.93-60.76,67.053-63.702,78.68c-0.186,0.845-0.257,1.102-0.257,1.102
		c-11.266-1.561-18.818-3.672-21.838-4.611c-0.835-0.26-1.724,0.179-2.026,1l-2.339,6.366c-0.304,0.826,0.101,1.736,0.91,2.083
		c7.819,3.346,17.692,4.936,21.577,5.465c0.93,0.127,1.556,1.001,1.387,1.925c-3.031,16.505-13.78,43.832-16.363,50.267
		c-0.313,0.78-1.159,1.193-1.966,0.96c-3.817-1.102-14.984-3.958-28.238-3.958c-21.292,0-28.609,10.133-29.132,16.492
		c-1.413,16.431,19.254,24.149,33.682,24.149c4.167,0,8.03-0.339,11.601-0.906c28.398-14.19,43.235-59.392,54.738-109.956
		C151.783,152.943,174.241,148.375,179.128,148.162z M85.201,306.797c-4.192,2.915-12.868,8.259-20.445,8.496
		c-7.964,0.231-13.15-5.061-13.15-8.026c0-6.554,8.042-7.587,13.15-7.226c8.408,0.457,16.012,2.56,20.012,3.857
		C86.054,304.315,86.311,306.025,85.201,306.797z"/>
	<path style="fill:#D6D6D8;" d="M200.006,231.3l0.005-0.005c-26.658,2.427-44.835,19.972-44.835,40.52
		c0,17.926,13.597,26.78,32.208,28.558C151.967,267.579,200.006,231.3,200.006,231.3z"/>
	<path style="fill:#D6D6D8;" d="M268.312,300.644c-16.101-9.257-1.842-55.365,2.595-68.441l-13.282,0.201
		c-0.768,0.012-1.438,0.526-1.647,1.266l-10.732,38.018c-0.068,0.242-0.201,0.451-0.36,0.639
		c-1.905,9.396,0.227,15.162,0.227,15.162c1.25,4.282,5.677,13.229,20.846,13.229C266.751,300.718,267.534,300.688,268.312,300.644z
		"/>
	<path style="fill:#D6D6D8;" d="M332.072,300.128c1.679,0,3.325-0.113,4.936-0.314c-35.676-21.373-8.766-57.578,1.332-69.187
		c-23.416,3.552-38.904,22.208-39.504,39.183c-0.078,1.778-0.149,2.802-0.183,3.359c0,0.005-0.003,0.01-0.004,0.015
		c0.315,8.519,5.062,13.586,5.062,13.586C306.634,290.556,315.648,300.128,332.072,300.128z"/>
	<path style="fill:#D6D6D8;" d="M395.359,299.164c-35.25-40.312,16.518-70.428,16.518-70.428c-28.867,0-44.687,24.887-45.377,39.521
		c-0.062,1.594-0.103,2.502-0.128,3.01c-0.016,0.317-0.138,0.606-0.312,0.865c0.081,7.148,3.152,12.008,3.819,12.975
		c0.047,0.063,0.098,0.122,0.136,0.194C372.359,289.627,379.34,299.164,395.359,299.164z"/>
</g>
<g>
</g>
<g>
</g>
<g>
</g>
<g>
</g>
<g>
</g>
<g>
</g>
<g>
</g>
<g>
</g>
<g>
</g>
<g>
</g>
<g>
</g>
<g>
</g>
<g>
</g>
<g>
</g>
<g>
</g>
</svg>
