<?xml version="1.0" encoding="UTF-8" standalone="no"?>
<svg
   xmlns:dc="http://purl.org/dc/elements/1.1/"
   xmlns:cc="http://creativecommons.org/ns#"
   xmlns:rdf="http://www.w3.org/1999/02/22-rdf-syntax-ns#"
   xmlns:svg="http://www.w3.org/2000/svg"
   xmlns="http://www.w3.org/2000/svg"
   xml:space="preserve"
   id="svg2"
   height="110.982"
   width="258.23999"
   version="1.1"><g
     id="g10"
     transform="matrix(1.25,0,0,-1.25,-137.28562,703.95038)"><g
       id="g16"><g
         id="g18"
         clip-path="url(#clipPath20)"><g
           id="g24"
           transform="translate(256.5535,503.4673)"><path
             style="fill:#768693;fill-opacity:1;fill-rule:nonzero;stroke:none"
             id="path26"
             d="m 0,0 c 3.782,-1.62 6.041,-4.665 6.041,-8.138 0,-4.598 -3.534,-7.338 -9.464,-7.338 -6.291,0 -9.212,5.537 -9.96,7.231 l -0.92,2.095 -11.781,0 -0.019,0.015 -10.918,0 c -2.978,-4.972 -8.984,-9.559 -15.964,-9.559 -12.6,0 -18.887,9.847 -19.694,19.568 l 51.5,0 0,2.128 c 0,4.03 -0.42,7.821 -1.203,11.346 1.474,-4.521 4.835,-9.206 11.879,-12.521 C -7.931,3.599 -4.048,1.77 0,0 m -53.726,30.891 c 10.54,0 15.705,-7.273 17.2,-14.676 l -35.078,0 c 1.833,7.418 8.332,14.676 17.878,14.676 m 103.345,-0.214 0,13.296 -10.948,0 0,15.72 -13.438,0 0,-15.72 -27.073,0 c -12.504,-0.007 -21.578,-8.413 -21.578,-20 0,-1.24 0.112,-2.583 0.362,-3.978 -4.259,14.761 -15.489,23.978 -30.568,23.978 -18.447,0 -32.545,-14.36 -33.729,-33.816 l 0,4.133 c 0,16.372 -13.319,29.683 -29.687,29.683 -16.367,0 -29.685,-13.311 -29.685,-29.683 l 0,-42.554 13.605,0 0,42.554 c 0,8.862 7.212,16.08 16.08,16.08 8.866,0 16.082,-7.218 16.082,-16.08 l 0,-42.554 13.605,0 0,33.11 c 1.191,-19.528 15.472,-33.938 34.157,-33.938 11.408,0 21.468,6.625 27.167,14.296 4.253,-9.088 12.561,-14.296 22.82,-14.296 11.896,0 23.936,7.597 23.936,22.12 0,8.696 -5.051,15.801 -14.22,20.015 -1.173,0.534 -2.119,0.983 -3.026,1.413 l -0.124,0.063 c -1.024,0.484 -2.018,0.95 -3.244,1.508 -5.992,2.69 -8.846,4.663 -8.846,8.59 0,3.457 3.089,6.06 6.91,6.06 l 27.056,0 0,-37.899 c 0,-12.064 9.81,-21.87 21.87,-21.87 l 0,13.437 c -4.65,0 -8.432,3.785 -8.432,8.433 l 0,37.899 c 5.376,-0.007 9.52,0 10.948,0" /></g><g
           id="g86"
           transform="translate(312.4075,479.6747)"><path
             style="fill:#768693;fill-opacity:1;fill-rule:nonzero;stroke:none"
             id="path88"
             d="m 0,0 -0.591,0 0,-0.881 0.591,0 c 0.288,0 0.491,0.166 0.491,0.467 C 0.491,-0.124 0.264,0 0,0 m 0.491,-3.146 -0.556,1.332 -0.519,0 0,-1.332 -1.042,0 0,4.077 1.626,0 c 0.852,0 1.535,-0.467 1.535,-1.384 0,-0.465 -0.19,-0.931 -0.628,-1.16 l 0.665,-1.533 -1.081,0 z m -0.62,5.121 c -1.837,0 -3.084,-1.345 -3.084,-3.157 0,-1.826 1.234,-3.163 3.084,-3.163 1.827,0 3.085,1.361 3.085,3.163 0,1.812 -1.245,3.157 -3.085,3.157 m 0,-7.275 c -2.402,0 -4.139,1.714 -4.139,4.118 0,2.392 1.761,4.114 4.139,4.114 2.377,0 4.142,-1.733 4.142,-4.114 0,-2.404 -1.75,-4.118 -4.142,-4.118" /></g></g></g></g></svg>