<?xml version="1.0" encoding="iso-8859-1"?>
<!-- Generator: Adobe Illustrator 19.0.0, SVG Export Plug-In . SVG Version: 6.00 Build 0)  -->
<svg version="1.1" id="Capa_1" xmlns="http://www.w3.org/2000/svg" xmlns:xlink="http://www.w3.org/1999/xlink" x="0px" y="0px"
	 viewBox="0 0 512.1 512.1" style="enable-background:new 0 0 512.1 512.1;" xml:space="preserve">
<path style="fill:#FFE7AB;" d="M497.1,511.75H14.3c-7.9,0-14.3-6.4-14.3-14.3V14.65c0-7.9,6.4-14.3,14.3-14.3h482.8
	c7.9,0,14.3,6.4,14.3,14.3v482.8C511.4,505.35,505,511.75,497.1,511.75z"/>
<path style="fill:#EDCF8E;" d="M20.6,497.05v-482c0-8.2,6.6-14.8,14.8-14.8H14.8C6.6,0.35,0,6.95,0,15.05v482
	c0,8.2,6.6,14.8,14.8,14.8h20.6C27.2,511.75,20.6,505.15,20.6,497.05z"/>
<path style="fill:#FCAF17;" d="M27.6,432.55c-8.8,2.6-17.7,5.2-26.5,7.8c-0.7,0.2-1.1,0.7-1.1,1.4v13.6c0,0.9,0.8,1.5,1.7,1.2
	c7.3-2.3,14.7-4.6,22.1-6.8L27.6,432.55z"/>
<path style="fill:#EA9D13;" d="M20.6,434.65c-6.5,1.9-13,3.8-19.5,5.7c-0.7,0.2-1.1,0.7-1.1,1.4v13.6c0,0.9,0.8,1.5,1.7,1.2
	c6.3-2,12.6-3.9,18.9-5.8V434.65z"/>
<path style="fill:#FCAF17;" d="M39.9,377.35c-12.8,4.1-25.7,8.1-38.5,12c-0.8,0.3-1.4,1-1.4,1.9v12.8c0,1.3,1.3,2.3,2.6,1.8
	c11.2-4,22.3-7.9,33.6-11.8L39.9,377.35z"/>
<path style="fill:#EA9D13;" d="M1.4,389.35c-0.8,0.3-1.4,1-1.4,1.9v12.8c0,1.3,1.3,2.3,2.6,1.8c6-2.1,12-4.3,18-6.4v-16.1
	C14.2,385.45,7.8,387.45,1.4,389.35z"/>
<g>
	<path style="fill:#FCAF17;" d="M484.2,0.05c-0.4,0-0.8,0.1-1.1,0.3c-58.4,33.4-118.1,65.6-179.3,96.5
		c-85.6,43.1-171.6,82.5-257.8,118.2c-1.3,0.5-2.2-1.3-1-2c79.9-48.1,162.8-93.9,248.3-137c52.2-26.3,104.5-51.2,157-74.7
		c0.6-0.3,0.4-1.2-0.3-1.2h-37.9c-0.4,0-0.8,0.1-1.2,0.3c-23.6,13.5-47.4,26.9-71.4,40.1c-83.2,45.5-166.9,87.6-250.8,126.3
		c-0.9,0.4-1.7-0.9-0.8-1.5c77.7-49.9,158.3-97.8,241.5-143.4c12.6-6.9,25.3-13.7,37.9-20.5c0.7-0.4,0.4-1.4-0.4-1.4h-17.7
		c-0.6,0-1.1,0.2-1.6,0.4c-70.2,41.1-140.6,79.7-211.2,116c-1.1,0.6-2-1-1-1.7c56.7-38.6,114.9-76.4,174.6-113
		c0.8-0.5,0.4-1.7-0.5-1.7h-13.1c-0.5,0-0.9,0.1-1.3,0.4c-37.4,22.7-74.8,44.7-112.2,66c-1.1,0.6-2.1-0.9-1.1-1.6
		c28.9-21,58.2-41.8,88-62.4c1-0.7,0.5-2.4-0.7-2.4H8.6c-4.7,0-8.6,3.9-8.6,8.6v254.2c82.5-46.6,167.9-90.5,256.2-131.4
		c84.4-39.1,169.2-74.5,254.2-106.3c1-0.4,1.7-1.3,1.7-2.4V6.25c0-3.4-2.8-6.2-6.2-6.2H484.2z"/>
	<path style="fill:#FCAF17;" d="M280.5,191.95c-17.2,7.6-34.5,15.2-51.8,22.6c-75.2,32-150.7,61-226.3,87.1
		c-1.4,0.5-2.3,1.8-2.3,3.2v14.1c0,2.1,2.2,3.6,4.2,2.7c56.8-25.9,114.7-50.4,173.7-73.4c98.4-38.4,197.2-71.6,296.2-99.9
		c0.8-0.2,1.2,0.9,0.5,1.2c-92,46.1-187.2,88.6-285.6,126.9c-62.2,24.3-124.7,46.5-187.2,66.7c-1.1,0.3-1.8,1.3-1.8,2.4v13
		c0,1.7,1.7,2.9,3.3,2.2c43.7-17.7,88.1-34.6,133-50.7c102.4-36.5,205.2-67.5,308-93.1c0.8-0.2,1.2,1,0.5,1.3
		c-95.9,45.2-195.1,86.2-297.5,122.7c-26.9,9.6-53.8,18.8-80.8,27.6H76l4,10.6c4.3-1.4,8.5-2.8,12.8-4.2
		c105.5-34.3,211.3-62.8,317-85.6c1.3-0.3,1.9,1.6,0.7,2.1c-62.4,27.5-126.1,53.3-191,77.1h27.9l-5.2,23.2
		c44.4-10.1,88.8-19.1,133.2-27.1c1.7-0.3,2.4,2.1,0.8,2.7c-28.2,11.8-56.7,23.2-85.5,34.3h7.5l-34.2,41.5l14.1,50h-34l-14-47.4
		l-11.1,47.4h-33.2l12.8-57.8c-5.9,2-11.7,4.1-17.6,6.1l-11.5,51.8H136l8.8-39.7c-5.9,1.9-11.8,3.9-17.8,5.8l-7.7,33.9H86.6l-7.3-19
		c-7.2,2.2-14.4,4.3-21.6,6.5c-2.4,0.7-4.8,1.4-7.2,2.1c-0.7,3.5-1.5,7-2.1,10.5H14l0,0c-4.7,1.3-9.4,2.6-14,3.9v9.2
		c0,3.1,2.5,5.6,5.6,5.6h495.7c5.9,0,10.7-4.8,10.7-10.7v-227.3v-36V32.25c0-1.2-1.3-2-2.4-1.4c-78.3,43.8-159.2,85.2-242.7,123.9
		c-87.8,40.7-176.1,77.4-264.6,110.1c-1.4,0.5-2.3,1.8-2.3,3.3v18.1c0,2,2.1,3.2,3.8,2.3c69.4-35.3,140.7-68.6,213.9-99.7
		c94.8-40.4,190.2-76,285.7-107c0.6-0.2,1,0.7,0.4,1c-61.9,33.1-125.4,64.5-190.5,94.3L280.5,191.95z M366.1,485.15
		c-16.1,13.1-41,13.6-57,9.4c-24.2-6.4-28.4-30.4-24.6-49c1.5-7.3,9-47.5,60.5-47.5c27,0,42.6,17.4,42.8,35.7
		C388.1,452.85,380.8,473.15,366.1,485.15z M492.3,423.35l-15.3,70h-33.4l11.5-52.5c1.3-7.9-2.7-10.1-5.6-10.9
		c-6.8-1.7-14.4,2.3-16.5,11.8l-11.3,51.6h-33.8l19.9-90.9h34c-1,5-1.9,9.4-2.8,13.1c8.8-12.1,26.5-19.2,40.8-14.9
		C482.9,401.55,495.5,407.85,492.3,423.35z"/>
	<path style="fill:#FCAF17;" d="M340.3,423.95c-3,0-9.6,1.5-12,8.2c-1.4,3.8-6.2,23.2-7.1,30.9c-0.5,4.5,2.9,8.1,8.6,8.1
		c5.6,0,10.4-2.9,12-8c0-0.1,0-0.1,0-0.2c1.5-4.6,5.4-19.1,7.2-30.6C349.7,428.25,347.7,423.85,340.3,423.95z"/>
	<path style="fill:#FCAF17;" d="M65.2,437.55l-2.6-6.8c-0.6,2.7-1.3,5.4-1.9,8.1C62.1,438.45,63.6,437.95,65.2,437.55z"/>
	<path style="fill:#FCAF17;" d="M92.2,412.55l5.8,15.7c0.8-0.2,1.7-0.5,2.5-0.7l4.3-19.1c-0.4,0.1-0.8,0.3-1.2,0.4
		C99.8,410.05,96,411.25,92.2,412.55z"/>
	<path style="fill:#FCAF17;" d="M136.3,417.95c5.8-1.5,11.6-3,17.4-4.5l2.6-11.5h33.5l-0.6,2.6c5.7-1.4,11.4-2.8,17.1-4.1l6.5-29.1
		c-4.9,1.8-9.9,3.6-14.8,5.4c0.1,0.4,0.1,0.9,0.1,1.2c0,7.3-5.9,17-21.1,17c-8.9,0-13.6-2.4-16.1-5.2c-6.5,2.3-13.1,4.5-19.6,6.7
		L136.3,417.95z"/>
	<path style="fill:#FCAF17;" d="M235.3,422.45l-2.8,12.6l13.7-16.5C242.5,419.85,238.9,421.15,235.3,422.45z"/>
</g>
<g>
	<polygon style="fill:#777777;" points="185.6,493.35 213.2,368.75 247.3,368.85 232.4,435.05 260,401.85 298.1,401.85 
		263.9,443.35 278,493.35 244,493.35 229.9,445.95 218.8,493.35 	"/>
	<path style="fill:#777777;" d="M62.6,430.75l24,62.6h32.7l28.1-124.6h-33.6l-14.2,63.4L76,368.75H41.8L14,493.35h34.3
		C52.2,473.35,57.4,452.35,62.6,430.75z"/>
	<polygon style="fill:#777777;" points="169.3,493.35 189.7,401.85 156.2,401.85 135.8,493.35 	"/>
	<path style="fill:#777777;" d="M157.9,381.85c0,2.9,0.7,13,19,13c15.2,0,21.1-9.7,21.1-17c0-4.9-4-13.4-19-13.4
		C165.2,364.45,157.9,373.65,157.9,381.85z"/>
	<path style="fill:#777777;" d="M479.8,400.65c-14.3-4.3-32,2.8-40.8,14.9c0.9-3.8,1.8-8.1,2.8-13.1h-34l-19.9,90.9h33.8l11.3-51.6
		c2.1-9.5,9.7-13.5,16.5-11.8c2.9,0.8,6.9,3,5.6,10.9l-11.5,52.5H477l15.3-70C495.5,407.85,482.9,401.55,479.8,400.65z"/>
	<path style="fill:#777777;" d="M345,398.05c-51.5,0-59,40.2-60.5,47.5c-3.8,18.5,0.4,42.6,24.6,49c16,4.2,40.9,3.8,57-9.4
		c14.7-12,21.9-32.3,21.7-51.4C387.6,415.45,372,398.05,345,398.05z M349.1,432.35c-1.8,11.4-5.7,26-7.2,30.6c0,0.1,0,0.1,0,0.2
		c-1.6,5.1-6.4,8-12,8c-5.7,0-9.1-3.6-8.6-8.1c0.8-7.7,5.7-27.1,7.1-30.9c2.4-6.7,9-8.1,12-8.2
		C347.7,423.85,349.7,428.25,349.1,432.35z"/>
</g>
<g>
	<polygon style="fill:#646566;" points="213.2,368.75 185.6,493.35 201.5,493.35 229.2,368.75 	"/>
	<polygon style="fill:#646566;" points="41.8,368.75 14,493.35 30,493.35 57.8,368.75 	"/>
	<path style="fill:#646566;" d="M112,447.65l17.7-78.9h17.7l0,0h-33.6l-14.2,63.4l6.8,16C107.5,450.85,111.3,450.45,112,447.65z"/>
	<path style="fill:#646566;" d="M62.6,430.75l24,62.6h16l-31.5-82.3c-0.7-1.9-3.5-1.7-4,0.3C65.6,417.85,64,424.45,62.6,430.75z"/>
	<polygon style="fill:#646566;" points="156.2,401.85 135.8,493.35 151.8,493.35 172.2,401.85 	"/>
	<path style="fill:#646566;" d="M173.9,381.85c0-6.5,4.6-13.7,13.4-16.3c-2.3-0.7-5.1-1.1-8.3-1.1c-13.8,0-21.1,9.2-21.1,17.4
		c0,2.9,0.7,13,19,13c2.8,0,5.3-0.3,7.5-0.9C174.3,391.35,173.9,384.15,173.9,381.85z"/>
	<polygon style="fill:#646566;" points="407.8,402.45 387.9,493.35 403.9,493.35 423.8,402.45 	"/>
	<path style="fill:#646566;" d="M465.4,429.95c-4-1-8.2,0-11.5,2.9c1.2,1.6,1.8,4.1,1.1,8l-11.5,52.5h16l11.5-52.5
		C472.4,432.95,468.3,430.75,465.4,429.95z"/>
	<path style="fill:#646566;" d="M325.1,494.45c-24.2-6.4-28.4-30.4-24.6-49c1.4-6.9,8.1-42.8,51.6-47.1c-2.3-0.3-4.6-0.4-7.1-0.4
		c-51.5,0-59,40.2-60.5,47.5c-3.8,18.5,0.4,42.6,24.6,49c7.6,2,17.3,3,27.1,2C332.3,496.05,328.5,495.35,325.1,494.45z"/>
	<path style="fill:#646566;" d="M345.9,471.05c5.6,0,10.4-2.9,12-8c0-0.1,0-0.1,0-0.2c1.5-4.6,5.4-19.1,7.2-30.6
		c0.6-4.1-1.4-8.5-8.8-8.4c-2,0-5.5,0.7-8.3,3c1.1,1.6,1.4,3.5,1.1,5.4c-1.8,11.4-5.7,26-7.2,30.6c0,0.1,0,0.1,0,0.2
		c-0.6,2-1.8,3.7-3.2,4.9C340.1,469.95,342.6,471.05,345.9,471.05z"/>
</g>
<g>
	<path style="fill:#EA9D13;" d="M15.6,0.35v-0.3h-7c-4.7,0-8.6,3.9-8.6,8.6v6.4v1.7v246.1c6.8-3.9,13.7-7.7,20.6-11.5V15.05
		c0-8.2,6.6-14.8,14.8-14.8L15.6,0.35L15.6,0.35z"/>
	<path style="fill:#EA9D13;" d="M3.8,288.55c5.6-2.8,11.2-5.6,16.8-8.5v-22c-6.1,2.3-12.2,4.6-18.3,6.8c-1.4,0.5-2.3,1.8-2.3,3.3
		v18.1C0,288.15,2.1,289.45,3.8,288.55z"/>
	<path style="fill:#EA9D13;" d="M4.2,321.65c5.5-2.5,11-5,16.4-7.4v-19c-6.1,2.1-12.2,4.3-18.3,6.4c-1.4,0.5-2.3,1.8-2.3,3.2v14.1
		C0,321.15,2.2,322.55,4.2,321.65z"/>
	<path style="fill:#EA9D13;" d="M35.4,511.75c-8.2,0-14.8-6.6-14.8-14.8v-3.6h-2.9H14l0,0h-0.1l0,0c-1.6,0.5-3.3,0.9-4.9,1.4
		c-2.6,0.7-5.3,1.5-7.9,2.2c-0.3,0.1-0.7,0.2-1,0.3v9.2c0,3.1,2.5,5.6,5.6,5.6h12.1v-0.3H35.4z"/>
	<path style="fill:#EA9D13;" d="M3.3,360.85c5.7-2.3,11.5-4.6,17.3-7v-16.8c-6.3,2.1-12.6,4.1-18.8,6.2c-1,0.3-1.8,1.3-1.8,2.4v13
		C0,360.35,1.7,361.55,3.3,360.85z"/>
</g>
<g>
</g>
<g>
</g>
<g>
</g>
<g>
</g>
<g>
</g>
<g>
</g>
<g>
</g>
<g>
</g>
<g>
</g>
<g>
</g>
<g>
</g>
<g>
</g>
<g>
</g>
<g>
</g>
<g>
</g>
</svg>
