<?xml version="1.0" encoding="iso-8859-1"?>
<!-- Generator: Adobe Illustrator 22.1.0, SVG Export Plug-In . SVG Version: 6.00 Build 0)  -->
<svg version="1.1" id="Layer_1" xmlns="http://www.w3.org/2000/svg" xmlns:xlink="http://www.w3.org/1999/xlink" x="0px" y="0px"
	 width="2081.584px" height="1777.252px" viewBox="0 0 2081.584 1777.252" enable-background="new 0 0 2081.584 1777.252"
	 xml:space="preserve">
<g>
	<path d="M1197.638,681.388c-14.24-11.393-30.515-19.327-48.213-23.599c-10.171-2.44-20.343-3.458-30.719-3.865
		c-7.731-0.203-15.461-0.203-23.191-0.203c-36.414,0-73.032,0-109.447,0c-7.73,0-15.46,0-23.191,0.203
		c-10.375,0.407-20.546,1.424-30.719,3.865c-17.698,4.272-33.974,12.206-48.213,23.599c-28.684,22.988-45.365,57.774-45.365,94.392
		c0,36.822,16.681,71.406,45.365,94.393c14.24,11.392,30.515,19.326,48.213,23.598c10.172,2.441,20.344,3.458,30.719,3.865
		c7.731,0.202,15.462,0.202,23.191,0.202c36.415,0,73.033,0,109.447,0c7.731,0,15.46,0,23.191-0.202
		c10.376-0.407,20.547-1.424,30.719-3.865c17.698-4.272,33.974-12.206,48.213-23.598c28.684-22.988,45.366-57.775,45.366-94.393
		C1243.004,738.958,1226.322,704.375,1197.638,681.388z M1144.338,808.533c-5.492,3.662-11.392,5.9-17.902,6.917
		c-6.51,1.017-12.817,0.814-19.326,0.814c-44.146,0-88.494,0-132.639,0c-6.509,0-12.816,0.203-19.326-0.814
		c-6.51-1.017-12.409-3.255-17.902-6.917c-10.782-7.527-17.291-19.733-17.291-32.753c0-13.222,6.509-25.429,17.291-32.753
		c5.493-3.661,11.392-5.9,17.902-6.916c6.51-1.018,12.817-0.814,19.326-0.814c44.146,0,88.494,0,132.639,0
		c6.509,0,12.816-0.205,19.326,0.814c6.51,1.016,12.409,3.255,17.902,6.916c10.782,7.527,17.292,19.734,17.292,32.753
		C1161.631,789.004,1155.121,801.209,1144.338,808.533z"/>
	<g>
		<path d="M783.777,1015.316c-14.168-0.049-28.02,5.237-38.104,15.41c-10.099,10.187-15.259,24.093-15.307,38.235
			c-0.049,14.145,5.015,28.088,15.043,38.345c10.014,10.241,23.831,15.624,38,15.671c14.166,0.05,28.02-5.236,38.105-15.409
			c10.099-10.187,15.258-24.093,15.305-38.235c0.049-14.145-5.015-28.088-15.044-38.345
			C811.761,1020.746,797.946,1015.364,783.777,1015.316z M812.171,1075.455c-0.375,1.979-0.93,3.922-1.673,5.793
			c-0.703,1.778-1.577,3.492-2.62,5.095c-1.001,1.542-2.156,2.983-3.449,4.287c-1.287,1.299-2.712,2.462-4.239,3.47
			c-1.576,1.041-3.259,1.915-5.011,2.619c-1.826,0.733-3.723,1.283-5.658,1.649c-1.986,0.377-4.009,0.558-6.03,0.553
			c-2.022-0.007-4.042-0.205-6.027-0.596c-1.929-0.378-3.825-0.941-5.645-1.686c-1.747-0.715-3.425-1.602-4.993-2.653
			c-1.519-1.019-2.935-2.192-4.214-3.499c-1.285-1.314-2.431-2.764-3.421-4.311c-1.03-1.612-1.893-3.331-2.586-5.115
			c-0.729-1.877-1.27-3.825-1.632-5.805c-0.373-2.047-0.555-4.129-0.548-6.211c0.007-2.081,0.202-4.161,0.591-6.206
			c0.375-1.978,0.931-3.922,1.671-5.793c0.706-1.778,1.58-3.492,2.62-5.095c1.001-1.542,2.157-2.983,3.451-4.288
			c1.288-1.299,2.713-2.461,4.24-3.47c1.574-1.041,3.259-1.915,5.009-2.619c1.826-0.733,3.725-1.283,5.658-1.649
			c1.987-0.377,4.009-0.56,6.03-0.553s4.043,0.205,6.027,0.595c1.931,0.378,3.824,0.941,5.646,1.687
			c1.747,0.715,3.425,1.601,4.992,2.653c1.519,1.019,2.936,2.191,4.216,3.499c1.284,1.314,2.429,2.764,3.419,4.311
			c1.031,1.612,1.893,3.331,2.586,5.115c0.729,1.875,1.272,3.824,1.632,5.804c0.374,2.047,0.555,4.129,0.549,6.211
			C812.755,1071.33,812.558,1073.41,812.171,1075.455z"/>
		<path d="M1218.189,1066.135c-0.019,2.833-0.031,5.762-0.217,8.591c-0.123,1.825-0.323,3.679-0.659,5.479
			c-0.637,3.385-1.746,6.643-3.621,9.578c-4.545,7.122-12.528,10.621-20.647,10.725c-8.25,0.104-16.096-3.279-20.512-10.655
			c-1.789-2.986-2.835-6.268-3.488-9.643c-0.875-4.535-1.084-9.284-1.196-13.869c-0.071-2.991-0.093-5.981-0.105-8.972
			c-0.025-5.091-0.024-10.377-0.025-15.469c-0.001-8.089-0.001-16.407-0.001-24.462c-8.162,0-16.324,0-24.486,0
			c0,8.055-0.011,33.426,0.038,41.802c0.024,4.007,0.058,8.112,0.182,12.119c0.09,2.93,0.229,5.901,0.489,8.822
			c0.619,6.933,1.898,13.709,5.059,20.067c6.479,13.036,19.062,20.586,33.092,22.245c6.884,0.815,13.951,0.206,20.598-1.746
			c6.384-1.875,13.157-5.228,17.903-10.132c0.228,3.299,0.459,6.703,0.689,9.925c7.141,0,14.928,0,21.372,0
			c0-33.83,0-69.272,0-103.102c-8.055,0-16.272,0-24.434,0C1218.221,1023.883,1218.232,1059.55,1218.189,1066.135z"/>
		<path d="M1349.639,1080.162c-3.56-9.959-12.251-16.058-21.391-19.642c-5.166-2.025-10.485-3.277-15.867-4.469
			c-2.363-0.524-4.726-1.035-7.068-1.654c-2.012-0.532-3.985-1.13-5.903-1.964c-2.04-0.888-4.133-2.102-5.582-3.9
			c-1.219-1.512-1.866-3.335-1.635-5.31c0.275-2.331,1.669-4.238,3.419-5.641c1.232-0.989,2.561-1.693,4.026-2.258
			c1.896-0.73,3.813-1.143,5.821-1.374c3.991-0.46,8.069-0.135,11.977,0.68c5.92,1.237,11.417,3.594,16.549,6.726
			c4.081-5.594,8.162-11.186,12.246-16.78c-8.179-5.896-17.472-9.699-27.445-11.204c-5.564-0.837-11.245-0.938-16.832-0.201
			c-4.361,0.577-8.489,1.609-12.557,3.31c-5.384,2.251-10.127,5.501-13.848,10.083c-2.668,3.287-4.63,7.063-5.753,11.149
			c-1.385,5.048-1.427,10.38,0.164,15.415c1.462,4.628,4.163,8.562,7.803,11.722c7.633,6.626,18.293,9.032,27.468,11.013
			c3.213,0.693,6.427,1.358,9.592,2.266c2.566,0.735,5.24,1.676,7.558,3.066c1.823,1.09,3.499,2.504,4.613,4.373
			c0.944,1.585,1.4,3.375,1.219,5.228c-0.168,1.719-0.864,3.297-1.911,4.646c-1.244,1.603-2.912,2.806-4.704,3.688
			c-2.358,1.161-4.951,1.79-7.529,2.114c-3.584,0.453-7.336,0.356-10.904-0.083c-3.983-0.488-7.781-1.408-11.543-2.808
			c-5.752-2.138-10.781-5.138-15.613-8.862c-4.355,5.816-8.708,11.63-13.059,17.446c7.775,6.456,16.555,11.187,26.301,13.95
			c5.388,1.528,10.766,2.387,16.363,2.595c4.5,0.165,8.9-0.097,13.341-0.87c5.673-0.988,11.245-2.79,16.232-5.779
			c3.653-2.188,6.834-4.928,9.438-8.315c3.346-4.355,5.539-9.528,6.301-14.971
			C1351.559,1089.035,1351.181,1084.478,1349.639,1080.162z"/>
		<path d="M916.056,1098.006c-5.71,1.275-11.793,1.111-17.389-0.717c-5.668-1.853-10.496-5.304-13.95-10.202
			c-3.404-4.823-5.188-10.65-5.509-16.475c-0.318-5.775,0.803-11.849,3.516-17.023c2.859-5.452,7.104-9.233,12.724-11.651
			c2.393-1.032,4.826-1.729,7.393-2.16c3.303-0.555,6.518-0.621,9.841-0.219c5.944,0.721,11.363,2.875,16.363,6.07
			c4.92-6.247,9.843-12.492,14.763-18.739c-8.518-6.711-18.13-10.598-28.906-11.748c-10.43-1.114-21.316,0.495-30.857,5.024
			c-9.73,4.618-17.431,11.956-22.506,21.458c-4.979,9.321-7.088,20.104-6.586,30.567c0.504,10.502,3.65,20.952,9.756,29.663
			c6.181,8.824,14.85,15.078,24.977,18.545c9.951,3.406,20.957,3.979,31.221,1.807c10.385-2.199,19.953-7.182,27.349-14.935
			c-5.595-5.775-11.193-11.551-16.788-17.327C927.14,1093.988,921.816,1096.72,916.056,1098.006z"/>
		<rect x="1091.223" y="976.187" width="25.776" height="144.355"/>
		<path d="M1038.32,1066.135c-0.018,2.833-0.031,5.762-0.216,8.591c-0.122,1.825-0.323,3.679-0.659,5.479
			c-0.636,3.385-1.747,6.643-3.621,9.578c-4.546,7.122-12.529,10.621-20.648,10.725c-8.248,0.104-16.095-3.279-20.512-10.655
			c-1.789-2.986-2.835-6.268-3.486-9.643c-0.875-4.535-1.085-9.284-1.196-13.869c-0.071-2.991-0.093-5.981-0.105-8.972
			c-0.026-5.091-0.024-10.377-0.026-15.469c-0.002-8.089-0.002-16.407-0.002-24.462c-8.162,0-16.324,0-24.486,0
			c0,8.055-0.011,33.426,0.038,41.802c0.024,4.007,0.058,8.112,0.182,12.119c0.091,2.93,0.23,5.901,0.49,8.822
			c0.618,6.933,1.898,13.709,5.059,20.067c6.48,13.036,19.061,20.586,33.091,22.245c6.886,0.815,13.952,0.206,20.599-1.746
			c6.383-1.875,13.157-5.228,17.902-10.132c0.229,3.299,0.46,6.703,0.69,9.925c7.142,0,14.367,0,20.811,0
			c0-33.83,0-69.272,0-103.102c-8.055,0-15.71,0-23.872,0C1038.353,1023.883,1038.364,1059.55,1038.32,1066.135z"/>
	</g>
</g>
</svg>
