<?xml version="1.0" encoding="UTF-8" standalone="no"?>
<!-- Created with Inkscape (http://www.inkscape.org/) -->

<svg
   xmlns:dc="http://purl.org/dc/elements/1.1/"
   xmlns:cc="http://creativecommons.org/ns#"
   xmlns:rdf="http://www.w3.org/1999/02/22-rdf-syntax-ns#"
   xmlns:svg="http://www.w3.org/2000/svg"
   xmlns="http://www.w3.org/2000/svg"
   xmlns:sodipodi="http://sodipodi.sourceforge.net/DTD/sodipodi-0.dtd"
   xmlns:inkscape="http://www.inkscape.org/namespaces/inkscape"
   width="196.86087"
   height="124.00058"
   viewBox="0 0 52.086104 32.808486"
   version="1.1"
   id="svg56"
   inkscape:version="0.92.0 r15299"
   sodipodi:docname="ring.svg">
  <defs
     id="defs50">
    <style
       id="style58">
      .cls-1 {
        fill: #1c9ad6;
      }

      .cls-2 {
        fill: #535556;
      }
    </style>
  </defs>
  <sodipodi:namedview
     id="base"
     pagecolor="#ffffff"
     bordercolor="#666666"
     borderopacity="1.0"
     inkscape:pageopacity="0.0"
     inkscape:pageshadow="2"
     inkscape:zoom="4.1157572"
     inkscape:cx="97.430431"
     inkscape:cy="61.000286"
     inkscape:document-units="mm"
     inkscape:current-layer="layer1"
     showgrid="false"
     fit-margin-top="0"
     fit-margin-left="0"
     fit-margin-right="0"
     fit-margin-bottom="0"
     units="px"
     inkscape:window-width="1280"
     inkscape:window-height="744"
     inkscape:window-x="-4"
     inkscape:window-y="-4"
     inkscape:window-maximized="1" />
  <metadata
     id="metadata53">
    <rdf:RDF>
      <cc:Work
         rdf:about="">
        <dc:format>image/svg+xml</dc:format>
        <dc:type
           rdf:resource="http://purl.org/dc/dcmitype/StillImage" />
        <dc:title></dc:title>
      </cc:Work>
    </rdf:RDF>
  </metadata>
  <g
     inkscape:label="Layer 1"
     inkscape:groupmode="layer"
     id="layer1"
     transform="translate(-258.45962,-281.08713)">
    <g
       data-name="Layer 2"
       id="Layer_2"
       transform="matrix(0.26458333,0,0,0.26458333,258.72675,281.35171)">
      <g
         data-name="Layer 1"
         id="Layer_1-2">
        <g
           id="g76">
          <circle
             id="circle64"
             r="6.71"
             cy="6.71"
             cx="56.139999"
             class="cls-1"
             style="fill:#1c9ad6" />
          <g
             id="g74">
            <path
               id="path66"
               d="M 40.44,32.1 A 3.76,3.76 0 0 1 39.26,34.85 3.92,3.92 0 0 1 36.38,36 4.08,4.08 0 0 1 33.63,34.82 L 33.5,34.69 a 1.21,1.21 0 0 0 -0.26,-0.2 1,1 0 0 1 -0.27,-0.2 15.43,15.43 0 0 0 -10.07,-3.5 q -7.07,0 -11.06,4.84 -3.99,4.84 -4,13.74 v 42.57 a 3.53,3.53 0 0 1 -1.24,2.95 4.26,4.26 0 0 1 -2.68,1 4.26,4.26 0 0 1 -2.68,-1 A 3.52,3.52 0 0 1 0,91.94 V 49.37 A 35.42,35.42 0 0 1 1.44,39.1 24.63,24.63 0 0 1 5.76,30.73 20.67,20.67 0 0 1 12.89,25 a 22.43,22.43 0 0 1 10,-2.09 25,25 0 0 1 8.64,1.7 20.89,20.89 0 0 1 7.59,4.71 3.89,3.89 0 0 1 1.32,2.78 z"
               class="cls-2"
               inkscape:connector-curvature="0"
               style="fill:#535556" />
            <path
               id="path68"
               d="m 60.06,91.94 a 3.53,3.53 0 0 1 -1.24,2.95 4.15,4.15 0 0 1 -5.37,0 3.52,3.52 0 0 1 -1.24,-2.95 V 28.17 a 3.53,3.53 0 0 1 1.24,-2.95 4.16,4.16 0 0 1 5.37,0 3.54,3.54 0 0 1 1.24,2.95 z"
               class="cls-2"
               inkscape:connector-curvature="0"
               style="fill:#535556" />
            <path
               id="path70"
               d="m 128.12,91.94 a 3.53,3.53 0 0 1 -1.25,2.95 4.15,4.15 0 0 1 -5.36,0 3.52,3.52 0 0 1 -1.24,-2.95 V 48.46 a 17.2,17.2 0 0 0 -1.38,-6.87 17.77,17.77 0 0 0 -9.42,-9.42 17.87,17.87 0 0 0 -13.74,0 17.78,17.78 0 0 0 -9.42,9.42 17.27,17.27 0 0 0 -1.37,6.87 v 43.48 a 3.52,3.52 0 0 1 -1.24,2.95 4.15,4.15 0 0 1 -5.37,0 3.52,3.52 0 0 1 -1.24,-2.95 V 48.46 a 24.83,24.83 0 0 1 2,-9.95 25.68,25.68 0 0 1 5.43,-8.12 26,26 0 0 1 8,-5.43 25.57,25.57 0 0 1 20,0 25.1,25.1 0 0 1 13.54,13.54 24.89,24.89 0 0 1 2,9.95 z"
               class="cls-2"
               inkscape:connector-curvature="0"
               style="fill:#535556" />
            <path
               id="path72"
               d="m 194.85,96.52 a 24.76,24.76 0 0 1 -2,10 25.28,25.28 0 0 1 -13.57,13.48 24.91,24.91 0 0 1 -9.95,2 30,30 0 0 1 -5.76,-0.59 32.88,32.88 0 0 1 -6,-1.77 25.85,25.85 0 0 1 -5.49,-3 16.4,16.4 0 0 1 -4.12,-4.19 3.74,3.74 0 0 1 -0.65,-2.23 3.59,3.59 0 0 1 1.24,-2.81 4.09,4.09 0 0 1 2.81,-1.12 4.49,4.49 0 0 1 1.63,0.33 3.18,3.18 0 0 1 1.51,1.37 0.37,0.37 0 0 0 0.13,0.26 l 0.52,0.53 a 14.66,14.66 0 0 0 6.48,4.12 24.78,24.78 0 0 0 7.65,1.25 17.22,17.22 0 0 0 6.87,-1.38 17.77,17.77 0 0 0 9.42,-9.42 17.17,17.17 0 0 0 1.43,-6.83 v -9 a 25.43,25.43 0 0 1 -8,5.17 25.08,25.08 0 0 1 -9.68,1.9 24.73,24.73 0 0 1 -10,-2 25.47,25.47 0 0 1 -13.48,-13.48 24.69,24.69 0 0 1 -2,-10 V 48.46 a 24.83,24.83 0 0 1 2,-9.95 25.61,25.61 0 0 1 5.43,-8.12 26,26 0 0 1 8,-5.43 25.57,25.57 0 0 1 20,0 25.09,25.09 0 0 1 13.54,13.54 24.89,24.89 0 0 1 2,9.95 V 96.52 Z M 187,48.46 a 17.2,17.2 0 0 0 -1.38,-6.87 17.77,17.77 0 0 0 -9.42,-9.42 17.87,17.87 0 0 0 -13.74,0 17.79,17.79 0 0 0 -9.46,9.41 17.33,17.33 0 0 0 -1.37,6.87 V 69 a 17.32,17.32 0 0 0 1.37,6.92 17.81,17.81 0 0 0 3.8,5.63 17.63,17.63 0 0 0 5.63,3.79 17.87,17.87 0 0 0 13.74,0 17.77,17.77 0 0 0 9.42,-9.42 A 17.19,17.19 0 0 0 187,69 Z"
               class="cls-2"
               inkscape:connector-curvature="0"
               style="fill:#535556" />
          </g>
        </g>
      </g>
    </g>
  </g>
</svg>
